<svg width="552" height="552" viewBox="0 0 552 552" fill="none" xmlns="http://www.w3.org/2000/svg">
<path d="M346.705 10C378.97 10 403.77 9.99253 423.583 11.6113C443.513 13.2397 459.276 16.5637 473.307 23.7129C496.979 35.7747 516.226 55.0208 528.288 78.6934C535.437 92.7244 538.76 108.487 540.389 128.417C542.007 148.23 542 173.03 542 205.295V346.705C542 378.97 542.007 403.77 540.389 423.583C538.76 443.513 535.437 459.276 528.288 473.307C516.226 496.979 496.979 516.226 473.307 528.288C459.276 535.437 443.513 538.76 423.583 540.389C403.77 542.007 378.97 542 346.705 542H205.295C173.03 542 148.23 542.007 128.417 540.389C108.487 538.76 92.7244 535.437 78.6934 528.288C55.0208 516.226 35.7747 496.979 23.7129 473.307C16.5637 459.276 13.2397 443.513 11.6113 423.583C9.99253 403.77 10 378.97 10 346.705V205.295C10 173.03 9.99253 148.23 11.6113 128.417C13.2397 108.487 16.5637 92.7244 23.7129 78.6934C35.7747 55.0208 55.0208 35.7747 78.6934 23.7129C92.7244 16.5637 108.487 13.2397 128.417 11.6113C148.23 9.99254 173.03 10 205.295 10H346.705Z" fill="#49021F" stroke="white" stroke-width="20"/>
<path d="M195.398 169.861V394.258C195.398 396.609 194.368 397.783 192.307 397.781H150.747C148.912 397.781 147.997 396.607 148 394.258V169.861C148 167.983 149.03 167.044 151.091 167.042H192.65C194.227 166.812 195.622 168.243 195.398 169.861Z" fill="#FF3366"/>
<path d="M318.36 401.303C302.551 401.55 286.887 398.18 272.507 391.439C241.977 376.947 228.712 344.874 228.715 311.826C228.451 278.859 245.912 247.448 274.396 231.859C294.059 220.688 317.188 217.851 339.311 219.882V150.484C339.311 148.844 339.998 148.018 341.372 148.018H384.648C385.831 147.845 386.878 148.919 386.71 150.132V358.326C386.71 366.916 387.561 375.475 388.084 384.041C388.168 385.505 387.321 386.952 386.022 387.564C374.858 392.34 363.229 395.883 351.333 398.132C340.455 400.191 329.421 401.253 318.36 401.303ZM339.311 357.621V261.451C308.082 252.774 277.483 276.616 277.487 309.712C276.732 344.372 307.636 367.123 339.311 357.621Z" fill="#FF3366"/>
</svg>
